<svg xmlns="http://www.w3.org/2000/svg" version="1.1" xmlns:xlink="http://www.w3.org/1999/xlink" xmlns:svgjs="http://svgjs.dev/svgjs" width="1000" height="1000" viewBox="0 0 1000 1000"><rect width="1000" height="1000" fill="#fefee2"></rect><g transform="matrix(0.7,0,0,0.7,150.0000000000001,106.25)"><svg viewBox="0 0 320 360" data-background-color="#fefee2" preserveAspectRatio="xMidYMid meet" height="1125" width="1000" xmlns="http://www.w3.org/2000/svg" xmlns:xlink="http://www.w3.org/1999/xlink"><g id="tight-bounds" transform="matrix(1,0,0,1,0,0)"><svg viewBox="0 0 320 360" height="360" width="320"><g><svg></svg></g><g><svg viewBox="0 0 320 360" height="360" width="320"><g><path xmlns="http://www.w3.org/2000/svg" d="M20.961 227.22l3.726 4.658-1.863-6.056c-0.466-2.795-3.726 0.466-1.863 1.398M25.153 224.425c1.397 2.329 2.795 4.658 2.795 6.987 0 3.261 2.795 4.658 5.123 5.589-3.261-3.726-5.124-13.974-7.918-12.576M204.017 26.929c7.918 0 15.371-0.932 23.756 0.931 20.495 5.124 37.729 15.371 49.374 29.811l32.606 52.169c1.397 13.042 4.192 27.482 3.726 43.319 3.261 0 2.795-4.658 6.521-5.59-3.726 9.316-5.59 20.961-6.521 34.469-2.329-7.453 0-18.632 0.466-24.687-3.261 5.124-5.124 1.397-5.124-0.932 0.466-3.726-1.397-3.261-2.795-4.658-5.124-4.658-8.384-9.782-12.11-17.7 2.329-6.055 2.795-14.905-4.658-19.563-2.329-1.397-5.124-3.726-6.521-7.453-1.863-5.124-5.124-11.179-4.193-19.097 0.466-2.329-6.987 5.124-11.179 1.863-18.166-12.576-36.332-27.016-58.224-39.127-11.645 0-20.029-4.192-24.221-9.316-3.726-4.658-0.932-10.713 4.658-11.179 3.261 0 6.987-0.932 9.782 0.932 0.466-1.863 2.329-4.192 4.657-4.192M157.904 16.215l0.932 0.466c4.658 0.932 6.987 7.453 12.11 5.124 0 3.261 0.466 6.521-0.466 8.85-1.397 3.726-5.59 3.726-8.85 3.726-31.208-1.863-49.374 11.179-68.471 22.358-5.124 3.261-10.713 5.59-14.906 9.782-20.029 18.632-41.921 35.866-47.045 70.335l-4.192 38.195c-0.466 4.192-5.124 8.384-4.192 13.508l3.26 22.824c-3.261-3.261-5.124 0.932-4.192 2.795 0.466 1.397 2.329 6.055 5.124 1.863 3.726 6.987 7.453 20.495 12.576 26.55 15.837 18.632 36.332 35.4 53.101 52.169 4.192-0.932 7.453-0.932 8.384-3.727 1.397 2.795-1.397 5.59-3.726 6.056 7.453 4.658 15.837 8.85 27.016 9.781 14.44 0.932 27.948 3.261 40.524 6.522 6.521-1.863 13.042-2.795 20.029-3.261 2.329 0 3.726-3.726 6.521-4.658l0.466-4.658c2.795 4.192 2.329-1.397 0.466-4.192 3.261 2.795 4.192 5.124 5.589 6.987 0-1.397 3.726-6.521 3.727-0.466l0.931-6.055c1.397-0.932 1.863 5.124 3.261 0.931 1.397-4.192 4.192-0.932 6.987-2.329-0.932 1.863-0.466 5.59 2.794 3.261l3.727-3.261c2.329 5.59 6.055 3.261 7.918 2.329 20.495-13.042 40.99-28.413 60.553-43.784l-0.466 6.055 2.329-7.453c2.329 2.329 4.192 0.466 5.124-0.931 2.795-4.658 6.521-9.316 12.577-13.508-7.453 20.029-16.303 35.866-27.482 48.908l-4.658 5.59c0 3.261-0.932 7.453-4.658 7.918-1.863 0.466-5.59-0.932-8.384 1.863-1.397 1.863 3.261 5.59-0.466 2.795-3.261-2.329-6.521 0-10.248 0.932-2.795 0.932 1.863 3.726 2.795 5.589 0.932 1.863 1.863 3.726 1.398 6.056l-5.124-5.59c-6.055 3.261-9.782 9.316-14.906 13.974-2.329 1.863-1.397 5.124-1.397 7.918-3.261 0-6.987-0.932-8.85 0.932-1.397 1.863-0.932 4.658-0.932 7.453-4.658-0.466-5.124-7.453-9.315-6.056-4.192 0.932-8.85 1.397-12.577 3.727 2.795 5.59-4.658 2.329-3.726 3.26-6.987-4.192-13.042-7.453-20.495-4.658-15.837-5.124-35.4-2.795-49.84-0.931 0-2.329 0.466-4.658-0.466-5.124-0.932 2.329-3.726 1.397-3.26 1.397-8.85-6.055-17.7-9.782-27.016-14.905-8.384 0.932-16.303-3.261-18.632-5.59-6.521-6.055-13.974-2.795-20.029-4.192-13.042-3.261-17.7-16.769-19.098-26.084-0.932-4.658-4.658-6.521-6.055-6.056-6.055-19.563-15.371-37.263-22.824-55.429-1.863-4.658-1.397-9.316-1.397-14.44 2.329 0.932 4.658 0.466 4.192-2.794-2.329-15.371-7.918-27.016-13.974-38.195 3.261-15.837 3.726-34.469 11.179-48.443 6.521-12.576 18.632-19.098 27.016-29.811 2.795-3.726 2.795-8.85 5.59-12.11 9.316-9.316 18.632-19.098 28.879-27.482 4.658-3.726 10.247 0 17.234-1.397 2.329-8.384 11.645-15.837 20.495-13.508 3.726 0.932 11.179-8.85 13.508-9.782 3.726-1.397 1.863 3.726 1.863 6.987 8.85-6.987 20.961-10.713 32.14-14.906" fill="#7fc37e" fill-rule="nonzero" stroke="none" stroke-width="1" stroke-linecap="butt" stroke-linejoin="miter" stroke-miterlimit="10" stroke-dasharray="" stroke-dashoffset="0" font-family="none" font-weight="none" font-size="none" text-anchor="none" style="mix-blend-mode: normal" data-fill-palette-color="tertiary"></path></g><g transform="matrix(1,0,0,1,84.39371004753184,90)"><svg viewBox="0 0 151.21257990493632 180" height="180" width="151.21257990493632"><g><svg viewBox="0 0 151.21257990493632 180" height="180" width="151.21257990493632"><g><svg viewBox="0 0 191.99999999999997 228.5524129125171" height="180" width="151.21257990493632"><g transform="matrix(1,0,0,1,0,138.14130367326896)"><svg viewBox="0 0 191.99999999999997 90.41110923924813" height="90.41110923924813" width="191.99999999999997"><g id="textblocktransform"><svg viewBox="0 0 191.99999999999997 90.41110923924813" height="90.41110923924813" width="191.99999999999997" id="textblock"><g><svg viewBox="0 0 191.99999999999997 90.41110923924813" height="90.41110923924813" width="191.99999999999997"><g transform="matrix(1,0,0,1,0,0)"><svg width="191.99999999999997" viewBox="-0.21555551886558533 -30.959999084472656 92.32555389404297 43.47999954223633" height="90.41110923924813" data-palette-color="#7fc37e"><path d="M1.96 1.64L1.96 1.64Q1.96 4.6 5.08 5.2L5.08 5.2Q5.68 5.32 6.44 5.32L6.44 5.32Q11.44 5.32 14.36 2.1 17.28-1.12 17.28-6L17.28-6Q17.28-7.92 16.58-9.54 15.88-11.16 14.84-12.22 13.8-13.28 12.58-14.36 11.36-15.44 10.32-16.32 9.28-17.2 8.58-18.44 7.88-19.68 7.88-21.08L7.88-21.08Q7.88-24.76 11.18-27.86 14.48-30.96 18.28-30.96L18.28-30.96Q19.04-30.96 19.4-30.4 19.76-29.84 19.76-29.28L19.76-29.28 19.72-28.76Q19.44-28.92 18.32-28.92L18.32-28.92Q15.76-28.92 13.36-26.52 10.96-24.12 10.96-20.96L10.96-20.96Q10.96-19.68 11.66-18.46 12.36-17.24 13.4-16.32 14.44-15.4 15.64-14.26 16.84-13.12 17.88-12.02 18.92-10.92 19.62-9.34 20.32-7.76 20.32-6L20.32-6Q20.32-1.16 16.32 2.6 12.32 6.36 6.44 6.36L6.44 6.36Q1.48 6.36 0.16 3.16L0.16 3.16Q-0.88 0.52 0.96-2.68 2.8-5.88 6.28-7L6.28-7Q7.56-7.4 8.56-7.4 9.56-7.4 9.94-7.06 10.32-6.72 10.44-6L10.44-6Q6.68-6 4-2.96L4-2.96Q1.96-0.68 1.96 1.64ZM20.52-20.48L20.52-20.48Q20.52-20.28 20.14-20.28 19.76-20.28 19.44-20.44 19.12-20.6 19.12-20.88L19.12-20.88Q19.12-24.96 20.04-27.44 20.96-29.92 22.48-29.92L22.48-29.92Q22.88-29.92 23.16-29.64 23.44-29.36 23.44-28.92L23.44-28.92Q21.64-27.12 20.84-23.52L20.84-23.52Q20.52-22.08 20.52-20.48ZM27.48 0L27.48 0Q24.2 0 24.2-5.16L24.2-5.16Q24.2-8.24 25.72-11.92L25.72-11.92Q27.84-17.08 31.28-18.96L31.28-18.96Q32.76-19.76 34.04-19.76 35.32-19.76 36.06-19.2 36.8-18.64 37-18.08L37-18.08 37.24-17.56Q37.12-16.88 36.56-16.88L36.56-16.88Q35.92-16.88 35.82-17.18 35.72-17.48 35.6-17.7 35.48-17.92 35.04-18.3 34.6-18.68 34.04-18.68L34.04-18.68Q31.44-18.68 29.32-14L29.32-14Q26.92-8.6 26.92-3.84L26.92-3.84Q26.92-1.44 27.88-1.44L27.88-1.44Q28.64-1.44 30.02-3.14 31.4-4.84 32.92-7.4L32.92-7.4Q35.56-11.8 37.2-15.04L37.2-15.04Q38.56-17.92 40-17.92L40-17.92Q40.76-17.92 40.76-17L40.76-17Q40.4-16.24 39.84-14.84 39.28-13.44 38.36-9.28 37.44-5.12 37.44-1 37.44 3.12 38.68 3.12L38.68 3.12Q39.16 3.12 39.56 2.7 39.96 2.28 40.28 1.44L40.28 1.44Q40.4 1 40.84 1L40.84 1Q41 1 41.08 1.12 41.16 1.24 41.08 1.52 41 1.8 40.8 2.3 40.6 2.8 39.94 3.64 39.28 4.48 38.56 4.48L38.56 4.48Q36.88 4.48 35.98 2.28 35.08 0.08 35.08-2.92 35.08-5.92 35.52-8.68L35.52-8.68 35.12-8.68Q30.04 0 27.48 0ZM50.88-3.68L50.88-3.68Q50.88-1.28 52.16-1.28L52.16-1.28Q53.8-1.28 55.75-5.68L55.75-5.68Q58.03-10.72 58.03-15.12L58.03-15.12Q58.03-18.12 56.48-18.12 54.91-18.12 52.98-15.58 51.03-13.04 49.59-9.88 48.16-6.72 47.13-4.18 46.12-1.64 46.12-1.36L46.12-1.36Q46.12-0.76 45.52-0.76L45.52-0.76Q44.31-0.76 44.31-3.96L44.31-3.96Q44.31-10.32 45.59-16.74 46.88-23.16 48.63-27.02 50.39-30.88 51.91-30.88L51.91-30.88Q52.55-30.88 52.55-30.24L52.55-30.24Q50.44-25.56 48.89-19 47.35-12.44 46.59-6.56L46.59-6.56 46.88-6.56Q48.72-11.24 51.08-14.96L51.08-14.96Q52.39-17.04 53.89-18.26 55.39-19.48 56.8-19.48L56.8-19.48Q59.63-19.48 60.31-15.8L60.31-15.8Q60.55-14.72 60.55-13.52L60.55-13.52Q60.55-10.56 59.27-7.08L59.27-7.08Q57.48-2.12 54.55-0.56L54.55-0.56Q53.55 0 52.48 0L52.48 0Q49.76 0 49.76-3.6L49.76-3.6Q49.76-5.52 50.81-8.02 51.88-10.52 53.59-11.72L53.59-11.72Q53.95-11.92 54.2-11.56L54.2-11.56Q54.23-11.36 54.16-11.28L54.16-11.28Q52.63-10.08 51.75-7.76 50.88-5.44 50.88-3.68ZM77.27 3L77.27 3Q77.75 3 78.17 2.58 78.59 2.16 78.95 1.28L78.95 1.28Q78.99 0.92 79.43 0.92 79.87 0.92 79.77 1.28 79.67 1.64 79.45 2.16 79.23 2.68 78.53 3.54 77.83 4.4 77.11 4.4L77.11 4.4Q75.51 4.4 74.63 2.4L74.63 2.4Q73.71 0.4 73.71-2.54 73.71-5.48 74.15-8.6L74.15-8.6 73.79-8.6Q68.95-0.16 66.35-0.16L66.35-0.16Q63.27-0.16 63.27-4.86 63.27-9.56 65.27-14.24L65.27-14.24Q67.47-19.4 69.15-19.4L69.15-19.4Q69.87-19.4 69.87-18.52L69.87-18.52Q68.19-14.08 66.99-9.88 65.79-5.68 65.79-3.62 65.79-1.56 66.75-1.56L66.75-1.56Q67.43-1.56 68.77-3.2 70.11-4.84 71.51-7.2L71.51-7.2Q74.51-12.28 76.09-15.84 77.67-19.4 79.35-19.4L79.35-19.4Q80.15-19.4 80.15-18.52L80.15-18.52Q77.59-13.44 76.51-6.4L76.51-6.4Q76.07-3.6 76.07-0.92L76.07-0.92Q76.07 3 77.27 3ZM80.59 12.52L80.59 12.52Q78.55 12.52 78.55 10.08L78.55 10.08Q78.55 8.36 79.73 5.16 80.91 1.96 82.03-0.28L82.03-0.28Q83.51-3.12 84.71-5.28L84.71-5.28Q85.63-15.16 87.31-17.56L87.31-17.56Q88.07-18.6 89.07-18.6L89.07-18.6Q89.99-18.6 89.99-17.6L89.99-17.6Q87.99-12.8 87.27-6.36L87.27-6.36Q86.23 3.04 85.35 6.4L85.35 6.4Q83.71 12.52 80.59 12.52ZM80.63 11.36L80.63 11.36Q82.27 11.36 83.11 7.12L83.11 7.12Q83.83 3.44 84.13 0.24 84.43-2.96 84.47-3.28L84.47-3.28Q81.43 3.2 80.75 5.24L80.75 5.24Q79.67 8.64 79.67 10 79.67 11.36 80.63 11.36ZM90.67-23.04L90.15-22.36Q89.31-22.36 89.31-23.96L89.31-23.96Q89.31-24.92 89.81-25.98 90.31-27.04 91.27-27.04L91.27-27.04Q92.11-27.04 92.11-26.12L92.11-26.12Q92.11-25.64 91.63-24.7 91.15-23.76 90.67-23.04L90.67-23.04Z" opacity="1" transform="matrix(1,0,0,1,0,0)" fill="#7fc37e" class="wordmark-text-0" data-fill-palette-color="primary" id="text-0"></path></svg></g></svg></g></svg></g></svg></g><g transform="matrix(1,0,0,1,47.65864869885013,0)"><svg viewBox="0 0 96.68270260229971 124.94815296864093" height="124.94815296864093" width="96.68270260229971"><g><svg xmlns="http://www.w3.org/2000/svg" xmlns:xlink="http://www.w3.org/1999/xlink" version="1.1" x="0" y="0" viewBox="12.982999801635742 1 75.68599700927734 97.81300354003906" enable-background="new 0 0 100 100" xml:space="preserve" height="124.94815296864093" width="96.68270260229971" class="icon-icon-0" data-fill-palette-color="accent" id="icon-0"><g fill="#7fc37e" data-fill-palette-color="accent"><polygon fill-rule="evenodd" clip-rule="evenodd" points="12.983,10.59 30.001,98.813 24.129,39.764 53.15,37.872 53.096,27.989    64.549,1 53.622,18.977  " fill="#7fc37e" data-fill-palette-color="accent"></polygon><polygon fill-rule="evenodd" clip-rule="evenodd" points="59.389,54.548 64.549,1.007 55.809,40.723 36.197,41.768 37.767,62.23    30.001,98.813 42.058,58.914  " fill="#7fc37e" data-fill-palette-color="accent"></polygon><polygon fill-rule="evenodd" clip-rule="evenodd" points="62.8,67.182 63.349,56.729 47.37,60.484 47.338,72.281 30.001,98.813    51.681,71.197  " fill="#7fc37e" data-fill-palette-color="accent"></polygon><polygon fill-rule="evenodd" clip-rule="evenodd" points="65.711,62.394 80.552,57.663 82.061,45.131 66.162,47.226  " fill="#7fc37e" data-fill-palette-color="accent"></polygon><polygon fill-rule="evenodd" clip-rule="evenodd" points="72.07,44.502 83.058,43.085 84.639,32.807 76.56,32.434 64.549,1    72.979,31.967  " fill="#7fc37e" data-fill-palette-color="accent"></polygon><polygon fill-rule="evenodd" clip-rule="evenodd" points="87.413,31.294 88.669,21.788 79.125,19.094 64.549,1 79.032,23.437    78.61,30.437  " fill="#7fc37e" data-fill-palette-color="accent"></polygon></g></svg></g></svg></g><g></g></svg></g></svg></g></svg></g></svg></g><defs></defs></svg><rect width="320" height="360" fill="none" stroke="none" visibility="hidden"></rect></g></svg></g></svg>